<mxfile host="Electron" agent="Mozilla/5.0 (Macintosh; Intel Mac OS X 10_15_7) AppleWebKit/537.36 (KHTML, like Gecko) draw.io/26.1.1 Chrome/132.0.6834.210 Electron/34.3.3 Safari/537.36" version="26.1.1">
  <diagram name="Seite-1" id="HVq4CknRLhtMip5qV4eb">
    <mxGraphModel dx="277" dy="195" grid="1" gridSize="10" guides="1" tooltips="1" connect="1" arrows="1" fold="1" page="1" pageScale="1" pageWidth="827" pageHeight="1169" math="0" shadow="0">
      <root>
        <mxCell id="0" />
        <mxCell id="1" parent="0" />
        <mxCell id="d8RL7Fm-GnTOsxHul2T6-1" value="&lt;div&gt;&lt;span style=&quot;background-color: rgb(153, 255, 255);&quot;&gt;&amp;lt;text&amp;gt;&lt;/span&gt;&lt;/div&gt;&lt;div&gt;&lt;span style=&quot;background-color: rgb(153, 255, 255);&quot;&gt;&amp;lt;text&amp;gt;&lt;/span&gt;&lt;/div&gt;&lt;div&gt;&lt;span style=&quot;background-color: rgb(153, 255, 204);&quot;&gt;&amp;lt;&lt;/span&gt;&lt;span style=&quot;background-color: rgb(153, 255, 204);&quot;&gt;img&lt;/span&gt;&lt;span style=&quot;background-color: rgb(153, 255, 204);&quot;&gt;&amp;gt;&lt;/span&gt;&lt;/div&gt;&lt;div&gt;&lt;span style=&quot;background-color: rgb(153, 255, 204);&quot;&gt;&amp;lt;&lt;/span&gt;&lt;span style=&quot;background-color: rgb(153, 255, 204);&quot;&gt;img&lt;/span&gt;&lt;span style=&quot;background-color: rgb(153, 255, 204);&quot;&gt;&amp;gt;&lt;/span&gt;&lt;/div&gt;&lt;div&gt;&lt;span style=&quot;background-color: rgb(153, 255, 204);&quot;&gt;&amp;lt;&lt;/span&gt;&lt;span style=&quot;background-color: rgb(153, 255, 204);&quot;&gt;img&lt;/span&gt;&lt;span style=&quot;background-color: rgb(153, 255, 204);&quot;&gt;&amp;gt;&lt;/span&gt;&lt;/div&gt;&lt;div&gt;&lt;span style=&quot;background-color: rgb(153, 255, 204); color: light-dark(rgb(0, 0, 0), rgb(255, 255, 255));&quot;&gt;&amp;lt;img&amp;gt;&lt;/span&gt;&lt;/div&gt;&lt;div&gt;&lt;span style=&quot;background-color: rgb(153, 255, 255);&quot;&gt;&amp;lt;text&amp;gt;&lt;/span&gt;&lt;/div&gt;&lt;div&gt;&lt;span style=&quot;background-color: rgb(153, 255, 255);&quot;&gt;&amp;lt;text&amp;gt;&lt;/span&gt;&lt;/div&gt;" style="text;html=1;align=center;verticalAlign=middle;whiteSpace=wrap;rounded=0;fontSize=8.5;" vertex="1" parent="1">
          <mxGeometry x="110" y="295" width="38" height="88" as="geometry" />
        </mxCell>
        <mxCell id="d8RL7Fm-GnTOsxHul2T6-66" value="KEYS" style="text;html=1;align=center;verticalAlign=middle;whiteSpace=wrap;rounded=0;fontSize=6;" vertex="1" parent="1">
          <mxGeometry x="190" y="290" width="20" height="10" as="geometry" />
        </mxCell>
        <mxCell id="d8RL7Fm-GnTOsxHul2T6-69" value="" style="endArrow=none;html=1;rounded=0;strokeColor=#CCCCCC;" edge="1" parent="1">
          <mxGeometry width="50" height="50" relative="1" as="geometry">
            <mxPoint x="109" y="310" as="sourcePoint" />
            <mxPoint x="160" y="310" as="targetPoint" />
          </mxGeometry>
        </mxCell>
        <mxCell id="d8RL7Fm-GnTOsxHul2T6-70" value="" style="endArrow=none;html=1;rounded=0;exitX=-0.03;exitY=0.166;exitDx=0;exitDy=0;exitPerimeter=0;strokeColor=#CCCCCC;" edge="1" parent="1">
          <mxGeometry width="50" height="50" relative="1" as="geometry">
            <mxPoint x="109" y="320" as="sourcePoint" />
            <mxPoint x="160" y="320" as="targetPoint" />
          </mxGeometry>
        </mxCell>
        <mxCell id="d8RL7Fm-GnTOsxHul2T6-71" value="" style="endArrow=none;html=1;rounded=0;exitX=-0.03;exitY=0.166;exitDx=0;exitDy=0;exitPerimeter=0;strokeColor=#CCCCCC;" edge="1" parent="1">
          <mxGeometry width="50" height="50" relative="1" as="geometry">
            <mxPoint x="109" y="329" as="sourcePoint" />
            <mxPoint x="160" y="329" as="targetPoint" />
          </mxGeometry>
        </mxCell>
        <mxCell id="d8RL7Fm-GnTOsxHul2T6-72" value="" style="endArrow=none;html=1;rounded=0;exitX=-0.03;exitY=0.166;exitDx=0;exitDy=0;exitPerimeter=0;strokeColor=#CCCCCC;" edge="1" parent="1">
          <mxGeometry width="50" height="50" relative="1" as="geometry">
            <mxPoint x="109" y="340" as="sourcePoint" />
            <mxPoint x="160" y="340" as="targetPoint" />
          </mxGeometry>
        </mxCell>
        <mxCell id="d8RL7Fm-GnTOsxHul2T6-73" value="" style="endArrow=none;html=1;rounded=0;exitX=-0.03;exitY=0.166;exitDx=0;exitDy=0;exitPerimeter=0;strokeColor=#CCCCCC;" edge="1" parent="1">
          <mxGeometry width="50" height="50" relative="1" as="geometry">
            <mxPoint x="109" y="350" as="sourcePoint" />
            <mxPoint x="160" y="350" as="targetPoint" />
          </mxGeometry>
        </mxCell>
        <mxCell id="d8RL7Fm-GnTOsxHul2T6-74" value="" style="endArrow=none;html=1;rounded=0;exitX=-0.03;exitY=0.166;exitDx=0;exitDy=0;exitPerimeter=0;strokeColor=#CCCCCC;" edge="1" parent="1">
          <mxGeometry width="50" height="50" relative="1" as="geometry">
            <mxPoint x="109" y="360" as="sourcePoint" />
            <mxPoint x="160" y="360" as="targetPoint" />
          </mxGeometry>
        </mxCell>
        <mxCell id="d8RL7Fm-GnTOsxHul2T6-75" value="" style="endArrow=none;html=1;rounded=0;exitX=-0.03;exitY=0.166;exitDx=0;exitDy=0;exitPerimeter=0;strokeColor=#CCCCCC;" edge="1" parent="1">
          <mxGeometry width="50" height="50" relative="1" as="geometry">
            <mxPoint x="109" y="370" as="sourcePoint" />
            <mxPoint x="160" y="370" as="targetPoint" />
          </mxGeometry>
        </mxCell>
        <mxCell id="d8RL7Fm-GnTOsxHul2T6-67" value="QUERIES" style="text;html=1;align=center;verticalAlign=middle;whiteSpace=wrap;rounded=0;fontSize=6;rotation=-90;fillColor=default;" vertex="1" parent="1">
          <mxGeometry x="138" y="334.5" width="34" height="10" as="geometry" />
        </mxCell>
        <mxCell id="d8RL7Fm-GnTOsxHul2T6-2" value="" style="whiteSpace=wrap;html=1;aspect=fixed;" vertex="1" parent="1">
          <mxGeometry x="160" y="300" width="10" height="10" as="geometry" />
        </mxCell>
        <mxCell id="d8RL7Fm-GnTOsxHul2T6-3" value="" style="whiteSpace=wrap;html=1;aspect=fixed;" vertex="1" parent="1">
          <mxGeometry x="160" y="310" width="10" height="10" as="geometry" />
        </mxCell>
        <mxCell id="d8RL7Fm-GnTOsxHul2T6-4" value="" style="whiteSpace=wrap;html=1;aspect=fixed;" vertex="1" parent="1">
          <mxGeometry x="160" y="320" width="10" height="10" as="geometry" />
        </mxCell>
        <mxCell id="d8RL7Fm-GnTOsxHul2T6-5" value="" style="whiteSpace=wrap;html=1;aspect=fixed;" vertex="1" parent="1">
          <mxGeometry x="160" y="330" width="10" height="10" as="geometry" />
        </mxCell>
        <mxCell id="d8RL7Fm-GnTOsxHul2T6-6" value="" style="whiteSpace=wrap;html=1;aspect=fixed;" vertex="1" parent="1">
          <mxGeometry x="160" y="340" width="10" height="10" as="geometry" />
        </mxCell>
        <mxCell id="d8RL7Fm-GnTOsxHul2T6-7" value="" style="whiteSpace=wrap;html=1;aspect=fixed;" vertex="1" parent="1">
          <mxGeometry x="160" y="350" width="10" height="10" as="geometry" />
        </mxCell>
        <mxCell id="d8RL7Fm-GnTOsxHul2T6-8" value="" style="whiteSpace=wrap;html=1;aspect=fixed;" vertex="1" parent="1">
          <mxGeometry x="160" y="360" width="10" height="10" as="geometry" />
        </mxCell>
        <mxCell id="d8RL7Fm-GnTOsxHul2T6-9" value="" style="whiteSpace=wrap;html=1;aspect=fixed;" vertex="1" parent="1">
          <mxGeometry x="160" y="370" width="10" height="10" as="geometry" />
        </mxCell>
        <mxCell id="d8RL7Fm-GnTOsxHul2T6-10" value="" style="whiteSpace=wrap;html=1;aspect=fixed;fillColor=#666666;" vertex="1" parent="1">
          <mxGeometry x="170" y="300" width="10" height="10" as="geometry" />
        </mxCell>
        <mxCell id="d8RL7Fm-GnTOsxHul2T6-11" value="" style="whiteSpace=wrap;html=1;aspect=fixed;" vertex="1" parent="1">
          <mxGeometry x="170" y="310" width="10" height="10" as="geometry" />
        </mxCell>
        <mxCell id="d8RL7Fm-GnTOsxHul2T6-12" value="" style="whiteSpace=wrap;html=1;aspect=fixed;" vertex="1" parent="1">
          <mxGeometry x="170" y="320" width="10" height="10" as="geometry" />
        </mxCell>
        <mxCell id="d8RL7Fm-GnTOsxHul2T6-13" value="" style="whiteSpace=wrap;html=1;aspect=fixed;" vertex="1" parent="1">
          <mxGeometry x="170" y="330" width="10" height="10" as="geometry" />
        </mxCell>
        <mxCell id="d8RL7Fm-GnTOsxHul2T6-14" value="" style="whiteSpace=wrap;html=1;aspect=fixed;" vertex="1" parent="1">
          <mxGeometry x="170" y="340" width="10" height="10" as="geometry" />
        </mxCell>
        <mxCell id="d8RL7Fm-GnTOsxHul2T6-15" value="" style="whiteSpace=wrap;html=1;aspect=fixed;" vertex="1" parent="1">
          <mxGeometry x="170" y="350" width="10" height="10" as="geometry" />
        </mxCell>
        <mxCell id="d8RL7Fm-GnTOsxHul2T6-16" value="" style="whiteSpace=wrap;html=1;aspect=fixed;" vertex="1" parent="1">
          <mxGeometry x="170" y="360" width="10" height="10" as="geometry" />
        </mxCell>
        <mxCell id="d8RL7Fm-GnTOsxHul2T6-17" value="" style="whiteSpace=wrap;html=1;aspect=fixed;" vertex="1" parent="1">
          <mxGeometry x="170" y="370" width="10" height="10" as="geometry" />
        </mxCell>
        <mxCell id="d8RL7Fm-GnTOsxHul2T6-18" value="" style="whiteSpace=wrap;html=1;aspect=fixed;fillColor=#666666;" vertex="1" parent="1">
          <mxGeometry x="180" y="300" width="10" height="10" as="geometry" />
        </mxCell>
        <mxCell id="d8RL7Fm-GnTOsxHul2T6-19" value="" style="whiteSpace=wrap;html=1;aspect=fixed;fillColor=light-dark(#666666, #ededed);" vertex="1" parent="1">
          <mxGeometry x="180" y="310" width="10" height="10" as="geometry" />
        </mxCell>
        <mxCell id="d8RL7Fm-GnTOsxHul2T6-20" value="" style="whiteSpace=wrap;html=1;aspect=fixed;" vertex="1" parent="1">
          <mxGeometry x="180" y="320" width="10" height="10" as="geometry" />
        </mxCell>
        <mxCell id="d8RL7Fm-GnTOsxHul2T6-21" value="" style="whiteSpace=wrap;html=1;aspect=fixed;" vertex="1" parent="1">
          <mxGeometry x="180" y="330" width="10" height="10" as="geometry" />
        </mxCell>
        <mxCell id="d8RL7Fm-GnTOsxHul2T6-22" value="" style="whiteSpace=wrap;html=1;aspect=fixed;" vertex="1" parent="1">
          <mxGeometry x="180" y="340" width="10" height="10" as="geometry" />
        </mxCell>
        <mxCell id="d8RL7Fm-GnTOsxHul2T6-23" value="" style="whiteSpace=wrap;html=1;aspect=fixed;" vertex="1" parent="1">
          <mxGeometry x="180" y="350" width="10" height="10" as="geometry" />
        </mxCell>
        <mxCell id="d8RL7Fm-GnTOsxHul2T6-24" value="" style="whiteSpace=wrap;html=1;aspect=fixed;" vertex="1" parent="1">
          <mxGeometry x="180" y="360" width="10" height="10" as="geometry" />
        </mxCell>
        <mxCell id="d8RL7Fm-GnTOsxHul2T6-25" value="" style="whiteSpace=wrap;html=1;aspect=fixed;" vertex="1" parent="1">
          <mxGeometry x="180" y="370" width="10" height="10" as="geometry" />
        </mxCell>
        <mxCell id="d8RL7Fm-GnTOsxHul2T6-26" value="" style="whiteSpace=wrap;html=1;aspect=fixed;fillColor=#666666;" vertex="1" parent="1">
          <mxGeometry x="190" y="300" width="10" height="10" as="geometry" />
        </mxCell>
        <mxCell id="d8RL7Fm-GnTOsxHul2T6-27" value="" style="whiteSpace=wrap;html=1;aspect=fixed;fillColor=light-dark(#666666, #ededed);" vertex="1" parent="1">
          <mxGeometry x="190" y="310" width="10" height="10" as="geometry" />
        </mxCell>
        <mxCell id="d8RL7Fm-GnTOsxHul2T6-28" value="" style="whiteSpace=wrap;html=1;aspect=fixed;fillColor=light-dark(#FFFFFF,#EDEDED);" vertex="1" parent="1">
          <mxGeometry x="190" y="320" width="10" height="10" as="geometry" />
        </mxCell>
        <mxCell id="d8RL7Fm-GnTOsxHul2T6-29" value="" style="whiteSpace=wrap;html=1;aspect=fixed;" vertex="1" parent="1">
          <mxGeometry x="190" y="330" width="10" height="10" as="geometry" />
        </mxCell>
        <mxCell id="d8RL7Fm-GnTOsxHul2T6-30" value="" style="whiteSpace=wrap;html=1;aspect=fixed;" vertex="1" parent="1">
          <mxGeometry x="190" y="340" width="10" height="10" as="geometry" />
        </mxCell>
        <mxCell id="d8RL7Fm-GnTOsxHul2T6-31" value="" style="whiteSpace=wrap;html=1;aspect=fixed;" vertex="1" parent="1">
          <mxGeometry x="190" y="350" width="10" height="10" as="geometry" />
        </mxCell>
        <mxCell id="d8RL7Fm-GnTOsxHul2T6-32" value="" style="whiteSpace=wrap;html=1;aspect=fixed;" vertex="1" parent="1">
          <mxGeometry x="190" y="360" width="10" height="10" as="geometry" />
        </mxCell>
        <mxCell id="d8RL7Fm-GnTOsxHul2T6-33" value="" style="whiteSpace=wrap;html=1;aspect=fixed;" vertex="1" parent="1">
          <mxGeometry x="190" y="370" width="10" height="10" as="geometry" />
        </mxCell>
        <mxCell id="d8RL7Fm-GnTOsxHul2T6-34" value="" style="whiteSpace=wrap;html=1;aspect=fixed;fillColor=#666666;" vertex="1" parent="1">
          <mxGeometry x="200" y="300" width="10" height="10" as="geometry" />
        </mxCell>
        <mxCell id="d8RL7Fm-GnTOsxHul2T6-35" value="" style="whiteSpace=wrap;html=1;aspect=fixed;fillColor=#666666;" vertex="1" parent="1">
          <mxGeometry x="200" y="310" width="10" height="10" as="geometry" />
        </mxCell>
        <mxCell id="d8RL7Fm-GnTOsxHul2T6-36" value="" style="whiteSpace=wrap;html=1;aspect=fixed;fillColor=light-dark(#FFFFFF,#EDEDED);" vertex="1" parent="1">
          <mxGeometry x="200" y="320" width="10" height="10" as="geometry" />
        </mxCell>
        <mxCell id="d8RL7Fm-GnTOsxHul2T6-37" value="" style="whiteSpace=wrap;html=1;aspect=fixed;fillColor=light-dark(#FFFFFF,#EDEDED);" vertex="1" parent="1">
          <mxGeometry x="200" y="330" width="10" height="10" as="geometry" />
        </mxCell>
        <mxCell id="d8RL7Fm-GnTOsxHul2T6-38" value="" style="whiteSpace=wrap;html=1;aspect=fixed;" vertex="1" parent="1">
          <mxGeometry x="200" y="340" width="10" height="10" as="geometry" />
        </mxCell>
        <mxCell id="d8RL7Fm-GnTOsxHul2T6-39" value="" style="whiteSpace=wrap;html=1;aspect=fixed;" vertex="1" parent="1">
          <mxGeometry x="200" y="350" width="10" height="10" as="geometry" />
        </mxCell>
        <mxCell id="d8RL7Fm-GnTOsxHul2T6-40" value="" style="whiteSpace=wrap;html=1;aspect=fixed;" vertex="1" parent="1">
          <mxGeometry x="200" y="360" width="10" height="10" as="geometry" />
        </mxCell>
        <mxCell id="d8RL7Fm-GnTOsxHul2T6-41" value="" style="whiteSpace=wrap;html=1;aspect=fixed;" vertex="1" parent="1">
          <mxGeometry x="200" y="370" width="10" height="10" as="geometry" />
        </mxCell>
        <mxCell id="d8RL7Fm-GnTOsxHul2T6-42" value="" style="whiteSpace=wrap;html=1;aspect=fixed;fillColor=#666666;" vertex="1" parent="1">
          <mxGeometry x="210" y="300" width="10" height="10" as="geometry" />
        </mxCell>
        <mxCell id="d8RL7Fm-GnTOsxHul2T6-43" value="" style="whiteSpace=wrap;html=1;aspect=fixed;fillColor=#666666;" vertex="1" parent="1">
          <mxGeometry x="210" y="310" width="10" height="10" as="geometry" />
        </mxCell>
        <mxCell id="d8RL7Fm-GnTOsxHul2T6-44" value="" style="whiteSpace=wrap;html=1;aspect=fixed;fillColor=light-dark(#FFFFFF,#EDEDED);" vertex="1" parent="1">
          <mxGeometry x="210" y="320" width="10" height="10" as="geometry" />
        </mxCell>
        <mxCell id="d8RL7Fm-GnTOsxHul2T6-45" value="" style="whiteSpace=wrap;html=1;aspect=fixed;fillColor=light-dark(#FFFFFF,#EDEDED);" vertex="1" parent="1">
          <mxGeometry x="210" y="330" width="10" height="10" as="geometry" />
        </mxCell>
        <mxCell id="d8RL7Fm-GnTOsxHul2T6-46" value="" style="whiteSpace=wrap;html=1;aspect=fixed;fillColor=light-dark(#FFFFFF,#EDEDED);" vertex="1" parent="1">
          <mxGeometry x="210" y="340" width="10" height="10" as="geometry" />
        </mxCell>
        <mxCell id="d8RL7Fm-GnTOsxHul2T6-47" value="" style="whiteSpace=wrap;html=1;aspect=fixed;" vertex="1" parent="1">
          <mxGeometry x="210" y="350" width="10" height="10" as="geometry" />
        </mxCell>
        <mxCell id="d8RL7Fm-GnTOsxHul2T6-48" value="" style="whiteSpace=wrap;html=1;aspect=fixed;" vertex="1" parent="1">
          <mxGeometry x="210" y="360" width="10" height="10" as="geometry" />
        </mxCell>
        <mxCell id="d8RL7Fm-GnTOsxHul2T6-49" value="" style="whiteSpace=wrap;html=1;aspect=fixed;" vertex="1" parent="1">
          <mxGeometry x="210" y="370" width="10" height="10" as="geometry" />
        </mxCell>
        <mxCell id="d8RL7Fm-GnTOsxHul2T6-50" value="" style="whiteSpace=wrap;html=1;aspect=fixed;fillColor=#666666;" vertex="1" parent="1">
          <mxGeometry x="220" y="300" width="10" height="10" as="geometry" />
        </mxCell>
        <mxCell id="d8RL7Fm-GnTOsxHul2T6-51" value="" style="whiteSpace=wrap;html=1;aspect=fixed;fillColor=#666666;" vertex="1" parent="1">
          <mxGeometry x="220" y="310" width="10" height="10" as="geometry" />
        </mxCell>
        <mxCell id="d8RL7Fm-GnTOsxHul2T6-52" value="" style="whiteSpace=wrap;html=1;aspect=fixed;fillColor=#666666;" vertex="1" parent="1">
          <mxGeometry x="220" y="320" width="10" height="10" as="geometry" />
        </mxCell>
        <mxCell id="d8RL7Fm-GnTOsxHul2T6-53" value="" style="whiteSpace=wrap;html=1;aspect=fixed;fillColor=#666666;" vertex="1" parent="1">
          <mxGeometry x="220" y="330" width="10" height="10" as="geometry" />
        </mxCell>
        <mxCell id="d8RL7Fm-GnTOsxHul2T6-54" value="" style="whiteSpace=wrap;html=1;aspect=fixed;fillColor=light-dark(#666666, #ededed);" vertex="1" parent="1">
          <mxGeometry x="220" y="340" width="10" height="10" as="geometry" />
        </mxCell>
        <mxCell id="d8RL7Fm-GnTOsxHul2T6-55" value="" style="whiteSpace=wrap;html=1;aspect=fixed;fillColor=light-dark(#666666, #ededed);" vertex="1" parent="1">
          <mxGeometry x="220" y="350" width="10" height="10" as="geometry" />
        </mxCell>
        <mxCell id="d8RL7Fm-GnTOsxHul2T6-56" value="" style="whiteSpace=wrap;html=1;aspect=fixed;" vertex="1" parent="1">
          <mxGeometry x="220" y="360" width="10" height="10" as="geometry" />
        </mxCell>
        <mxCell id="d8RL7Fm-GnTOsxHul2T6-57" value="" style="whiteSpace=wrap;html=1;aspect=fixed;" vertex="1" parent="1">
          <mxGeometry x="220" y="370" width="10" height="10" as="geometry" />
        </mxCell>
        <mxCell id="d8RL7Fm-GnTOsxHul2T6-58" value="" style="whiteSpace=wrap;html=1;aspect=fixed;fillColor=#666666;" vertex="1" parent="1">
          <mxGeometry x="230" y="300" width="10" height="10" as="geometry" />
        </mxCell>
        <mxCell id="d8RL7Fm-GnTOsxHul2T6-59" value="" style="whiteSpace=wrap;html=1;aspect=fixed;fillColor=#666666;" vertex="1" parent="1">
          <mxGeometry x="230" y="310" width="10" height="10" as="geometry" />
        </mxCell>
        <mxCell id="d8RL7Fm-GnTOsxHul2T6-60" value="" style="whiteSpace=wrap;html=1;aspect=fixed;fillColor=#666666;" vertex="1" parent="1">
          <mxGeometry x="230" y="320" width="10" height="10" as="geometry" />
        </mxCell>
        <mxCell id="d8RL7Fm-GnTOsxHul2T6-61" value="" style="whiteSpace=wrap;html=1;aspect=fixed;fillColor=#666666;" vertex="1" parent="1">
          <mxGeometry x="230" y="330" width="10" height="10" as="geometry" />
        </mxCell>
        <mxCell id="d8RL7Fm-GnTOsxHul2T6-62" value="" style="whiteSpace=wrap;html=1;aspect=fixed;fillColor=light-dark(#666666, #ededed);" vertex="1" parent="1">
          <mxGeometry x="230" y="340" width="10" height="10" as="geometry" />
        </mxCell>
        <mxCell id="d8RL7Fm-GnTOsxHul2T6-63" value="" style="whiteSpace=wrap;html=1;aspect=fixed;fillColor=light-dark(#666666, #ededed);" vertex="1" parent="1">
          <mxGeometry x="230" y="350" width="10" height="10" as="geometry" />
        </mxCell>
        <mxCell id="d8RL7Fm-GnTOsxHul2T6-64" value="" style="whiteSpace=wrap;html=1;aspect=fixed;fillColor=light-dark(#666666, #ededed);" vertex="1" parent="1">
          <mxGeometry x="230" y="360" width="10" height="10" as="geometry" />
        </mxCell>
        <mxCell id="d8RL7Fm-GnTOsxHul2T6-65" value="" style="whiteSpace=wrap;html=1;aspect=fixed;" vertex="1" parent="1">
          <mxGeometry x="230" y="370" width="10" height="10" as="geometry" />
        </mxCell>
      </root>
    </mxGraphModel>
  </diagram>
</mxfile>
